<?xml version="1.0" encoding="utf-8"?>
<svg version="1.1" xmlns="http://www.w3.org/2000/svg" xmlns:xlink="http://www.w3.org/1999/xlink" x="0px" y="0px"
	width="18px" height="18px" viewBox="0 0 18 18" enable-background="new 0 0 18 18" xml:space="preserve">
	<path fill="#3F3F3F" d="M9.3552284,5.8477492c0.6003466-0.0949597-0.4341717-1.7145276,0.096734-3.1731794
		s1.7581682-1.852582,2.4349356-1.606259c0.6767683,0.246323,1.3635855,1.3372539,0.8326797,2.7959056
		s-2.3643341,2.0340734-1.9654713,2.4926829"/>
	<path fill="#3F3F3F" d="M8.6447716,12.1522503c-0.6003466,0.0949602,0.4341717,1.7145281-0.096734,3.1731796
		s-1.7581687,1.8525829-2.434936,1.6062584c-0.6767673-0.2463226-1.363585-1.3372536-0.8326793-2.7959051
		s2.3643346-2.0340729,1.9654713-2.4926825"/>
	<path fill="#3F3F3F" d="M12.1522503,9.3552284c0.0949602,0.6003466,1.7145281-0.4341717,3.1731796,0.096734
		s1.8525829,1.7581682,1.6062584,2.4349356c-0.2463226,0.6767683-1.3372536,1.3635855-2.7959051,0.8326797
		s-2.0340729-2.3643341-2.4926825-1.9654713"/>
	<path fill="#3F3F3F" d="M5.8477492,8.6447716C5.7527895,8.044425,4.1332216,9.0789433,2.6745698,8.5480375
		s-1.852582-1.7581687-1.606259-2.434936s1.3372539-1.363585,2.7959056-0.8326793s2.0340734,2.3643346,2.4926829,1.9654713"/>
	<path fill="#3F3F3F" d="M11.4801626,7.0222068c0.4916553,0.3573618,0.9053488-1.5193601,2.3121777-2.1753755
		s2.5531855-0.0667605,2.8575563,0.5859628s0.0186195,1.9097819-1.3882103,2.5657973s-3.1101446-0.2335296-3.1523914,0.3727951"/>
	<path fill="#3F3F3F" d="M6.5198374,10.9777927c-0.4916553-0.3573618-0.9053483,1.5193605-2.3121781,2.1753759
		s-2.5531859,0.066761-2.8575559-0.5859632c-0.3043702-0.6527233-0.0186189-1.9097815,1.3882105-2.5657969
		s3.1101439,0.23353,3.1523912-0.3727951"/>
	<path fill="#3F3F3F" d="M10.9777927,11.4801626c-0.3573618,0.4916553,1.5193605,0.9053488,2.1753759,2.3121777
		s0.066761,2.5531855-0.5859632,2.8575563c-0.6527233,0.3043709-1.9097815,0.0186195-2.5657969-1.3882103
		s0.23353-3.1101446-0.3727951-3.1523914"/>
	<path fill="#3F3F3F" d="M7.0222068,6.5198374C7.3795686,6.028182,5.5028467,5.6144891,4.8468313,4.2076592
		S4.7800708,1.6544734,5.4327941,1.3501034S7.342576,1.3314844,7.9985914,2.7383139S7.7650619,5.8484578,8.3713865,5.8907051"/>
	<circle fill="#3F3F3F" cx="9" cy="9" r="3.1899748"/>
</svg>
